<?xml version="1.0" encoding="UTF-8"?>
<svg version="1.1" xmlns="http://www.w3.org/2000/svg" width="256" height="256">
<path d="M0 0 C16.04645653 12.25770985 16.04645653 12.25770985 17.21875 20.12109375 C17.87875 20.12109375 18.53875 20.12109375 19.21875 20.12109375 C19.56679688 19.06148437 19.56679688 19.06148437 19.921875 17.98046875 C25.81491459 4.98738146 40.30957453 -3.70992275 53.03125 -8.81640625 C70.47589229 -15.24580545 89.05120602 -14.80573665 106.05859375 -7.21875 C124.65477141 1.67722118 136.74780017 16.97801749 144.32421875 35.87890625 C148.79634605 50.28209557 147.81772757 68.21696611 142.21875 82.12109375 C141.91453125 82.94738281 141.6103125 83.77367188 141.296875 84.625 C135.96943921 97.06251357 124.89554394 107.95459949 115.21875 117.12109375 C112.52020147 119.80174146 109.84185311 122.50184166 107.16796875 125.20703125 C101.36046109 131.07290582 95.53604962 136.80067297 89.21875 142.12109375 C88.17099514 143.01980858 87.12420989 143.91965441 86.078125 144.8203125 C83.06381526 147.41475837 80.04249035 150.00085093 77.01806641 152.58349609 C75.8579274 153.57488761 74.69867905 154.56732279 73.54052734 155.56103516 C67.02977611 161.14699717 60.4321742 166.5839926 53.66235352 171.85351562 C49.10911939 175.40223992 44.62526313 179.0295592 40.15625 182.68359375 C33.28001959 188.3009489 26.29248473 193.7552299 19.21875 199.12109375 C15.50710842 197.47838157 12.53708704 195.17216688 9.34375 192.68359375 C8.77930176 192.24474854 8.21485352 191.80590332 7.63330078 191.35375977 C5.82566052 189.94640758 4.02212861 188.53390105 2.21875 187.12109375 C1.02614334 186.19127583 -0.16656432 185.26158744 -1.359375 184.33203125 C-7.68605839 179.39118451 -13.95647156 174.38976128 -20.15234375 169.28515625 C-21.88853158 167.85596151 -23.6306364 166.43392099 -25.37890625 165.01953125 C-36.05486281 156.37184921 -46.40380236 147.33647671 -56.578125 138.10546875 C-58.68538697 136.20743847 -60.82133861 134.34844098 -62.96875 132.49609375 C-66.19773228 129.69026439 -69.2061121 126.72188343 -72.19921875 123.66796875 C-73.86668509 121.97845153 -73.86668509 121.97845153 -76.28125 120.18359375 C-79.14715573 117.81922152 -81.42329415 115.20978106 -83.828125 112.38671875 C-85.92555217 109.95370323 -88.10065188 107.60469988 -90.28125 105.24609375 C-102.84816635 91.24723285 -110.43659434 75.72618335 -110.15625 56.68359375 C-110.14537354 55.67369385 -110.13449707 54.66379395 -110.12329102 53.62329102 C-109.76902217 37.05554093 -103.85680993 22.51803285 -92.78125 10.12109375 C-92.17667969 9.4353125 -91.57210937 8.74953125 -90.94921875 8.04296875 C-66.74097557 -17.79230503 -28.44630382 -19.21723615 0 0 Z " fill="#C2272D" transform="translate(109.78125,34.87890625)"/>
<path d="M0 0 C0.754021 0.00829834 1.50804199 0.01659668 2.28491211 0.02514648 C15.816162 0.43553841 23.24201409 8.77830683 32.21875 18.03125 C34.16338935 19.92665798 36.124219 21.67909507 38.1875 23.4375 C44.74834178 29.13008499 50.74189237 35.4367978 56.84228516 41.61279297 C62.29130578 47.12323833 67.72430032 52.56914877 73.62695312 57.59960938 C78.88861542 62.2927129 83.74640384 67.44964679 88.69677734 72.46728516 C90.18110227 73.96994104 91.6677268 75.47025311 93.15625 76.96875 C93.63352036 77.4494696 94.11079071 77.93018921 94.6025238 78.42547607 C97.37181927 81.19198622 100.21317598 83.82019672 103.19140625 86.359375 C105.98015656 88.7433876 108.16277905 91.05239343 110.125 94.1875 C110.59808594 94.92484375 111.07117188 95.6621875 111.55859375 96.421875 C115.31138193 103.12235493 114.58575928 113.04918876 113.07421875 120.43359375 C110.55722825 127.54104268 105.87770275 133.06373982 99.30859375 136.78515625 C91.35183815 140.44238 83.2097695 142.23561349 74.65234375 139.44921875 C67.99510398 136.39977344 63.16631664 132.47557134 58.234375 127.09765625 C56.25525244 125.03050523 54.30937367 123.2192302 52.140625 121.37109375 C45.7875429 115.88751366 39.99742433 109.80329372 34.10546875 103.83496094 C27.09140807 96.68040471 27.09140807 96.68040471 19.6875 89.9375 C13.46694604 84.62946532 7.84642134 78.65033328 2.10546875 72.83496094 C-3.3417171 67.32357128 -8.78919802 61.88919029 -14.68554688 56.85107422 C-21.7917754 50.67684505 -27.72758106 44.04158055 -28.72265625 34.5078125 C-29.15082567 25.96254256 -28.79501257 18.41755073 -23.3125 11.4375 C-16.47908727 4.12675329 -10.12240743 -0.14285429 0 0 Z " fill="#A57C52" transform="translate(55.3125,54.5625)"/>
<path d="M0 0 C2.88354656 1.31563286 5.03337528 2.75056085 7.3359375 4.921875 C7.97732666 5.52459229 8.61871582 6.12730957 9.27954102 6.74829102 C9.97104248 7.40885498 10.66254395 8.06941895 11.375 8.75 C12.46929321 9.7862854 12.46929321 9.7862854 13.58569336 10.84350586 C20.97050685 17.8831554 28.16910298 25.11108136 35.33544922 32.37207031 C39.08698187 36.15998563 42.81446847 39.9127077 46.87109375 43.375 C52.72902003 48.39237353 58.07130752 53.96604285 63.5 59.4375 C64.61955632 60.5620833 65.73934629 61.68643405 66.859375 62.81054688 C69.57561534 65.53769344 72.28868292 68.26795907 75 71 C73.20467891 74.87949716 70.89932945 77.26961294 67.8125 80.25 C63.89993896 84.07080065 60.18653972 87.98054425 56.63671875 92.140625 C53.90728152 95.24136992 50.95999337 98.12097909 48 101 C37.92023853 96.56054862 30.04319752 86.14920947 22.375 78.375 C14.92108332 70.73908342 14.92108332 70.73908342 7.046875 63.546875 C1.33516647 58.66596044 -3.85026132 53.2174669 -9.125 47.875 C-11.22877035 45.74439748 -13.33600338 43.61730519 -15.4453125 41.4921875 C-16.83000732 40.09009033 -16.83000732 40.09009033 -18.24267578 38.65966797 C-21.06104837 35.94111378 -23.96336752 33.468766 -27 31 C-26.4576162 27.012884 -24.5703307 25.23382623 -21.73828125 22.48046875 C-20.43020508 21.19366211 -20.43020508 21.19366211 -19.09570312 19.88085938 C-18.17724609 18.99205078 -17.25878906 18.10324219 -16.3125 17.1875 C-10.62356315 11.63721824 -5.05267343 6.14197285 0 0 Z " fill="#C69C6C" transform="translate(74,74)"/>
<path d="M0 0 C2.625 0.375 2.625 0.375 5 1 C5.625 3.375 5.625 3.375 6 6 C5.34 6.66 4.68 7.32 4 8 C1.375 7.625 1.375 7.625 -1 7 C-1.625 4.625 -1.625 4.625 -2 2 C-1.34 1.34 -0.68 0.68 0 0 Z " fill="#A77C52" transform="translate(123,135)"/>
<path d="M0 0 C2.625 0.375 2.625 0.375 5 1 C5.625 3.375 5.625 3.375 6 6 C5.34 6.66 4.68 7.32 4 8 C1.375 7.625 1.375 7.625 -1 7 C-1.625 4.625 -1.625 4.625 -2 2 C-1.34 1.34 -0.68 0.68 0 0 Z " fill="#A67C52" transform="translate(69,106)"/>
<path d="M0 0 C2.625 0.375 2.625 0.375 5 1 C5.625 3.375 5.625 3.375 6 6 C5.34 6.66 4.68 7.32 4 8 C1.375 7.625 1.375 7.625 -1 7 C-1.625 4.625 -1.625 4.625 -2 2 C-1.34 1.34 -0.68 0.68 0 0 Z " fill="#A67C52" transform="translate(83,120)"/>
<path d="M0 0 C2.625 0.375 2.625 0.375 5 1 C5.6875 2.8125 5.6875 2.8125 6 5 C4.8125 6.8125 4.8125 6.8125 3 8 C0.8125 7.6875 0.8125 7.6875 -1 7 C-1.625 4.625 -1.625 4.625 -2 2 C-1.34 1.34 -0.68 0.68 0 0 Z " fill="#A57B51" transform="translate(95,108)"/>
<path d="M0 0 C2.5 0.125 2.5 0.125 3.5 1.125 C3.625 3.625 3.625 3.625 3.5 6.125 C2.5 7.125 2.5 7.125 0.0625 7.3125 C-2.5 7.125 -2.5 7.125 -4.5 5.125 C-3.7519084 0.18759542 -3.7519084 0.18759542 0 0 Z " fill="#A57B51" transform="translate(99.5,133.875)"/>
<path d="M0 0 C2.125 0.375 2.125 0.375 4 1 C4.625 3.375 4.625 3.375 5 6 C4.34 6.66 3.68 7.32 3 8 C0.375 7.625 0.375 7.625 -2 7 C-2.125 4.625 -2.125 4.625 -2 2 C-1.34 1.34 -0.68 0.68 0 0 Z " fill="#A57A51" transform="translate(112,147)"/>
<path d="M0 0 C2.625 0.375 2.625 0.375 5 1 C5.125 3.375 5.125 3.375 5 6 C4.34 6.66 3.68 7.32 3 8 C0.875 7.625 0.875 7.625 -1 7 C-1.625 4.625 -1.625 4.625 -2 2 C-1.34 1.34 -0.68 0.68 0 0 Z " fill="#A47A51" transform="translate(81,94)"/>
<path d="M0 0 C2.375 -0.125 2.375 -0.125 5 0 C5.66 0.66 6.32 1.32 7 2 C6.625 4.125 6.625 4.125 6 6 C3.625 6.625 3.625 6.625 1 7 C0.34 6.34 -0.32 5.68 -1 5 C-0.625 2.375 -0.625 2.375 0 0 Z " fill="#A47A50" transform="translate(108,122)"/>
<path d="M0 0 C1.32 0.33 2.64 0.66 4 1 C0.37 4.63 -3.26 8.26 -7 12 C-7.99 11.67 -8.98 11.34 -10 11 C-8.52116808 9.35386588 -7.04192523 7.70810092 -5.5625 6.0625 C-4.73878906 5.14597656 -3.91507813 4.22945312 -3.06640625 3.28515625 C-1 1 -1 1 0 0 Z " fill="#C7343B" transform="translate(142,38)"/>
<path d="M0 0 C3.79588866 0.54226981 5.47211993 2.20127563 8 5 C7.67 5.99 7.34 6.98 7 8 C5.83035398 6.8572081 4.66435444 5.71068285 3.5 4.5625 C2.8503125 3.92441406 2.200625 3.28632813 1.53125 2.62890625 C0 1 0 1 0 0 Z " fill="#C93E45" transform="translate(19,139)"/>
</svg>
