<?xml version="1.0" standalone="no"?>
<!DOCTYPE svg PUBLIC "-//W3C//DTD SVG 20010904//EN"
 "http://www.w3.org/TR/2001/REC-SVG-20010904/DTD/svg10.dtd">
<svg version="1.0" xmlns="http://www.w3.org/2000/svg"
 width="256.000000pt" height="256.000000pt" viewBox="0 0 256.000000 256.000000"
 preserveAspectRatio="xMidYMid meet">

<g transform="translate(0.000000,256.000000) scale(0.100000,-0.100000)"
fill="#000000" stroke="none">
<path d="M545 2315 c-254 -56 -456 -251 -522 -505 -11 -41 -17 -102 -16 -165
1 -224 73 -363 322 -613 176 -176 531 -477 909 -771 l42 -33 43 33 c685 533
1086 910 1173 1106 59 133 76 310 41 443 -110 422 -572 639 -962 452 -98 -47
-193 -125 -248 -203 -23 -32 -44 -58 -47 -58 -3 0 -24 26 -47 58 -84 119 -248
224 -398 256 -85 18 -209 18 -290 0z m131 -326 c59 -22 90 -51 817 -759 159
-154 187 -198 194 -300 9 -123 -50 -226 -162 -281 -60 -29 -70 -31 -143 -27
-64 4 -89 10 -130 34 -48 27 -397 359 -789 748 -152 152 -162 164 -178 220
-23 77 -16 159 20 231 63 131 225 188 371 134z"/>
<path d="M860 1729 c63 -63 234 -230 380 -371 l265 -257 -145 -148 c-80 -81
-148 -148 -152 -148 -4 0 -170 158 -369 350 -199 193 -365 351 -370 353 -9 4
184 -186 520 -511 117 -114 216 -207 220 -207 3 0 73 70 155 156 l149 156
-159 157 c-227 223 -469 456 -544 526 -36 32 -13 8 50 -56z"/>
<path d="M593 1680 c-79 -81 -143 -150 -143 -152 0 -3 66 62 147 144 81 81
145 149 142 152 -2 2 -68 -63 -146 -144z"/>
<path d="M795 1600 c-3 -6 -3 -19 0 -31 10 -31 60 -23 60 10 0 13 -7 26 -15
28 -12 4 -13 3 -1 -5 17 -12 7 -42 -13 -42 -21 0 -30 19 -16 35 8 10 9 15 2
15 -6 0 -14 -5 -17 -10z"/>
<path d="M684 1476 c-10 -26 4 -48 28 -44 17 2 23 10 23 28 0 18 -6 26 -23 28
-13 2 -25 -3 -28 -12z m46 -16 c0 -13 -7 -20 -20 -20 -13 0 -20 7 -20 20 0 13
7 20 20 20 13 0 20 -7 20 -20z"/>
<path d="M945 1464 c-18 -18 -16 -33 7 -47 35 -22 66 21 36 51 -16 16 -23 15
-43 -4z m43 -17 c4 -21 -25 -34 -40 -19 -8 8 -8 16 2 27 16 19 34 15 38 -8z"/>
<path d="M850 1356 c0 -2 7 -9 15 -16 9 -7 15 -8 15 -2 0 5 -7 12 -15 16 -8 3
-15 4 -15 2z"/>
<path d="M822 1323 c2 -22 8 -28 27 -28 13 0 25 6 27 13 1 7 0 8 -3 2 -2 -5
-14 -10 -25 -10 -16 0 -19 5 -16 25 3 14 1 25 -4 25 -5 0 -8 -12 -6 -27z"/>
<path d="M1087 1334 c-11 -11 -8 -52 3 -59 6 -3 19 -3 31 0 28 9 23 59 -6 63
-12 2 -24 0 -28 -4z m38 -29 c0 -28 -29 -25 -33 3 -3 19 0 23 15 20 10 -2 18
-12 18 -23z"/>
<path d="M964 1205 c-13 -32 25 -70 47 -48 6 6 2 9 -13 9 -17 -1 -23 5 -23 19
0 14 6 20 22 19 12 0 20 3 17 8 -9 14 -44 9 -50 -7z"/>
<path d="M1227 1193 c-10 -9 -9 -41 2 -47 4 -3 6 6 3 21 -4 23 -2 25 21 21 15
-3 24 -1 21 3 -6 11 -38 12 -47 2z"/>
<path d="M1265 1150 c-3 -5 -1 -10 4 -10 6 0 11 5 11 10 0 6 -2 10 -4 10 -3 0
-8 -4 -11 -10z"/>
<path d="M1104 1065 c-8 -20 2 -45 18 -45 10 0 9 3 -1 9 -17 11 -7 41 14 41
21 0 31 -30 14 -41 -9 -6 -10 -9 -2 -9 17 0 25 17 18 40 -8 24 -53 28 -61 5z"/>
</g>
</svg>
